<svg xmlns="http://www.w3.org/2000/svg" viewBox="0 0 975.99 786"><defs><style>.cls-1{fill:#59c0d2;}</style></defs><g id="Capa_2" data-name="Capa 2"><g id="Capa_1-2" data-name="Capa 1"><path class="cls-1" d="M734,332.73q30.24-.18,44.84-17.58t14.49-39q-.12-25.1-14.91-40.57t-45.05-15.33q-30.3.18-44.88,17.58t-14.5,39q.12,25,14.92,40.53T734,332.73Z"/><path class="cls-1" d="M353.19,112.44q30.19,1.64,45.81-14.85t16.82-38q1.4-25.06-12.45-41.4T359.32.15Q329.06-1.5,313.47,15T296.65,53.06q-1.38,25,12.45,41.36T353.19,112.44Z"/><path class="cls-1" d="M953.84,402.66a11.85,11.85,0,0,0-14.6-7.11C924.7,400,909.94,404,895,407.71L881,411l-14.16,2.91c-4.68,1.1-9.47,1.93-14.21,2.88s-9.5,1.87-14.31,2.64c-19.12,3.42-38.54,5.91-58,8.44s-39.15,4.71-58.94,6.6-39.71,3.26-59.73,4.28c-20,.81-39.94,1-59.87.75-19.9-.42-39.79-1-59.56-2.5Q511.42,435,481,431l0,0L399.69,188A11.86,11.86,0,0,0,389.37,180l-85.23-6.69a11.86,11.86,0,0,0-11.43,6.33l-85.4,163.2c-16.52-9.11-32.48-19.16-48.32-29.42-16-10.48-31.95-21.14-47.51-32.52-4-2.77-7.75-5.75-11.6-8.66s-7.7-5.83-11.46-8.89c-4.89-3.82-9.73-7.72-14.76-11.43A11.83,11.83,0,0,0,58,253.44L15.67,299.32a11.84,11.84,0,0,0,0,16.06c4.89,5.27,10,10.26,15.37,15.07,4,3.7,8,7.29,12.1,10.85s8.11,7.19,12.31,10.63a542.58,542.58,0,0,0,52.07,39.46A627.76,627.76,0,0,0,164.29,425L1.36,736.35a11.86,11.86,0,0,0,9.31,17.29l69.17,7a11.81,11.81,0,0,0,11.73-6.35C110.28,717.76,180.93,580,241.71,461c54.48,20.59,111.78,35.14,168.3,44.23,35.81,110,73.76,226.09,88.63,271.55a11.88,11.88,0,0,0,11,8.19q36.73.75,73.58,1a11.87,11.87,0,0,0,11.34-15.63L509.18,515.15c30.46,2.31,60.89,3.62,91.24,4.25l31.55.35,31.48-.06c19.11.14,38.3-.16,57.54-.68l28,249.44a11.87,11.87,0,0,0,13,10.49q32.64-3.23,65.18-6.83A11.88,11.88,0,0,0,837.63,759L809.91,512.76c14.59-1.82,29.17-4,43.74-6.7,5.3-.88,10.6-1.93,15.9-3s10.59-2,15.88-3.29L901.25,496,917,491.71q25.9-7.2,51.31-17a11.89,11.89,0,0,0,6.89-15.27Z"/></g></g></svg>