<?xml version="1.0" encoding="utf-8"?>
<!-- Generator: Adobe Illustrator 24.1.0, SVG Export Plug-In . SVG Version: 6.00 Build 0)  -->
<svg version="1.1" id="Capa_1" xmlns="http://www.w3.org/2000/svg" xmlns:xlink="http://www.w3.org/1999/xlink" x="0px" y="0px"
	 viewBox="0 0 1280 235" style="enable-background:new 0 0 1280 235;" xml:space="preserve">
<style type="text/css">
	.st0{fill:#59C1D3;}
</style>
<g id="Capa_2_1_">
	<g id="Capa_2-2">
		<g id="tipo_vector">
			<path class="st0" d="M710.3,53.2c2.6,2.2,6.3,3,11.1,2.5s8.2-2.3,10.2-5.3c2-2.8,2.9-6.2,2.5-9.7c-0.2-3.6-1.9-6.9-4.6-9.3
				c-2.6-2.2-6.3-3-11.1-2.5c-4.8,0.5-8.2,2.3-10.2,5.3c-2,2.8-2.8,6.2-2.4,9.7C706,47.5,707.6,50.9,710.3,53.2z"/>
			<path class="st0" d="M899.8,136.6l-3-16.5c-0.3-1.3-1.5-2.1-2.8-1.9l-77,13.8l-7.8-41.6c16.5-4.7,32.8-10,48.9-15.9
				c0.9-0.3,1.3-1.2,1-2.1l-5.5-15.8c-0.3-0.8-1.2-1.3-2.1-1c-7.9,2.6-15.9,5.1-23.9,7.5c-7.4,2.3-14.9,4.5-22.3,6.5L799,35.2
				l77.5-13.9c1-0.2,1.7-1.1,1.5-2.1l-3.2-17.6c-0.2-1-1.1-1.7-2.1-1.5l-99.5,17.9l10.6,57.4c-2.4,0.6-4.8,1.2-7.2,1.7
				c-4.3,1-8.6,2-12.9,2.9c-4.3,0.9-8.6,1.9-13,2.7c-17.2,3.5-34.6,6-52.1,7.6c-8.7,0.7-17.4,1.2-26.1,1.1
				c-8.8-0.1-17.6-0.6-26.4-1.6l0,0l-23-69.4c-0.2-0.6-0.7-1-1.4-1.1l-22.1-1.7c-0.6,0-1.2,0.3-1.5,0.8l-25.5,48.8
				c-7.5-3.9-14.9-8.2-22.1-12.8c-7.2-4.6-14.5-9.7-21.6-14.9c-7.1-5.2-14.3-10.6-21.6-16l-1.6-1.1c-7.1-5.2-14.7-9.9-22.6-14
				c-4-2-8.1-3.8-12.4-5.1h-0.1c-0.6-0.2-1.3-0.4-1.9-0.6c-2.7-0.8-5.4-1.3-8.1-1.7c-1.8-0.2-4.1-0.4-5.6-0.4
				c-4.5-0.1-9,0.1-13.5,0.6c-8.4,1-16.3,4.1-23.1,9c-6.4,4.8-11,11.8-12.7,19.7c-3.1,12.6-1,23.3,6.3,32s18.2,16.2,32.7,22.5
				c11.6,4.9,20.4,9.7,26.3,14.5c5.9,4.8,8.1,10.5,6.4,17.3c-1,4.3-3.7,8-7.6,10.2c-4.3,2.3-9.2,3.6-14.1,3.8
				c-5.5,0.3-11.1-0.3-16.5-1.6c-10.7-2.7-19.1-7.1-25.1-13.3c-5.7-6-10.5-12.9-14.1-20.4c-0.8-1.5-2.7-2.1-4.2-1.3
				c-0.1,0.1-0.3,0.2-0.4,0.2l-13.8,10.2c-1.2,0.9-1.6,2.5-0.9,3.9c4.7,9.9,11.6,18.5,20.2,25.1c9,6.8,19.7,11.7,32,14.7
				c11.7,2.9,22.2,3.5,31.7,2c9.5-1.6,17.4-5.1,23.6-10.6c6.3-5.5,10.5-12.7,12.7-21.7c1.6-6.3,1.4-12-0.5-17.1
				c-2-5.3-5.1-10.1-9.2-14c-4.6-4.5-9.6-8.3-15.2-11.5c-6-3.5-12.2-6.6-18.6-9.3c-10-4.3-17.8-8.8-23.3-13.5s-7.4-10.5-5.6-17.6
				c1.5-6.2,5.7-10.2,12.5-12.2c2.5-0.7,5.2-1.2,7.8-1.3c0.7,0,1.9,0,2.7,0c0.6,0,1.3,0.1,1.9,0.2c1.4,0.2,2.7,0.4,4.1,0.7
				c1.7,0.4,3.4,0.8,5.1,1.4c3.6,1.2,7,2.8,10.3,4.7c5.8,3.3,11.7,7.3,17.6,11.5l3.6,2.6c3.3,2.4,6.7,4.8,10,7.2
				c11.2,8.1,22.8,16.3,35,23.6c7.7,4.6,15.7,9,23.8,12.9l-36.6,69.9c-0.3,0.5-0.1,1.2,0.5,1.5c0.1,0.1,0.3,0.1,0.5,0.1l20.3,1.7
				c0.5,0,0.9-0.2,1.1-0.6c3.2-6.2,18.7-36.4,33.2-64.5c2.6,1,5.3,2,8,2.9c8.9,3.1,17.9,5.6,27,7.7c4,0.9,8,1.7,12,2.4
				c7.7,23.7,15.2,46.8,18,55.4c0.2,0.5,0.6,0.8,1.1,0.8c6.9,0,14,0.1,20.8,0c0.7,0,1.2-0.6,1.2-1.2c0-0.1,0-0.2-0.1-0.4l-17.1-51.6
				c6.5,0.5,13,0.8,19.6,0.9c9.3,0.1,18.5-0.1,27.7-0.6c5.9-0.3,11.9-0.8,17.8-1.4l5.7,51c0.1,0.8,0.8,1.3,1.5,1.3
				c4.9-0.3,12.5-0.8,18.6-1.6c0.8-0.1,1.4-0.8,1.3-1.6l-6-51.8c5.2-0.8,10.5-1.7,15.7-2.6c11.1-2.1,22.1-4.4,33-7.1l11.3,61
				l99-17.8C899.1,139,900,137.8,899.8,136.6z M621.1,85.3c-8.4-2-16.6-4.5-24.6-7.5c-1.9-0.7-3.7-1.4-5.5-2.1
				c9.1-17.8,16.3-31.8,17-33.5c0.5,2,6.6,20.9,13.9,43.4L621.1,85.3z"/>
			<path class="st0" d="M435.2,234.5l-3.3-7.7h-15.8l-3.4,7.7h-5.2l13.9-31.7h5.4l13.8,31.7H435.2z M421.4,214.5l-3.3,7.6h11.7
				l-3.4-7.8c-0.4-1-0.8-2-1.2-3.1c-0.4-1-0.8-2.1-1.2-3.2c-0.4,1.1-0.8,2.3-1.3,3.4C422.3,212.4,421.9,213.5,421.4,214.5z"/>
			<path class="st0" d="M448.9,234.5V201h4.8v33.5L448.9,234.5z"/>
			<path class="st0" d="M479.3,210.3c1.8-0.1,3.6,0.4,5.2,1.3c1.4,0.9,2.4,2.2,3,3.8c0.6-0.8,1.4-1.6,2.2-2.3c1-0.8,2.1-1.5,3.3-2
				c1.3-0.5,2.7-0.8,4.1-0.8c1.9-0.1,3.8,0.4,5.5,1.4c1.3,0.9,2.3,2.2,2.8,3.6c0.6,1.6,0.8,3.4,0.8,5.1v14.1h-4.8v-13.7
				c0.1-1.6-0.4-3.2-1.2-4.5c-0.8-1.2-2.3-1.7-4.3-1.7c-1.4,0-2.8,0.3-4,0.9c-1.1,0.6-2.1,1.4-2.8,2.5c-0.7,1-1,2.2-1,3.4v13.2h-4.8
				v-13.7c0.1-1.6-0.4-3.2-1.4-4.4c-0.9-1.1-2.4-1.7-4.5-1.7c-1.3,0-2.6,0.3-3.8,0.9c-1,0.6-1.9,1.4-2.6,2.4c-0.6,0.9-0.9,1.9-0.9,3
				v13.6h-4.8v-23.9h4.8v3.8c1-1.2,2.3-2.2,3.7-2.9C475.5,210.7,477.4,210.3,479.3,210.3z"/>
			<path class="st0" d="M520.8,205.6c-0.9,0.1-1.8-0.2-2.4-0.8c-0.5-0.6-0.8-1.3-0.8-2.1c0-1.6,1.3-2.9,2.9-3c0.1,0,0.2,0,0.3,0
				c0.9-0.1,1.8,0.2,2.4,0.8c0.5,0.6,0.8,1.3,0.8,2.1c0,1.6-1.3,2.9-2.9,3C521,205.6,520.9,205.6,520.8,205.6L520.8,205.6z
				 M523.2,234.5h-4.7v-23.8h4.7L523.2,234.5z"/>
			<path class="st0" d="M551.6,216c-0.5-0.3-1.1-0.5-1.7-0.6c-0.6-0.2-1.3-0.2-2-0.2c-1.3,0-2.5,0.3-3.7,0.9c-1.1,0.6-2,1.4-2.7,2.4
				c-0.7,1-1,2.2-1,3.4v12.6h-4.8v-23.9h4.8v4.8c0.9-1.5,2.1-2.8,3.6-3.8c1.4-1,3.1-1.5,4.8-1.5c0.8,0,1.5,0.1,2.2,0.2
				c0.6,0.1,1.2,0.3,1.7,0.6L551.6,216z"/>
			<path class="st0" d="M584.5,210.7v23.8h-4.8v-3.9c-0.6,0.8-1.4,1.5-2.3,2.1c-1,0.7-2.1,1.3-3.3,1.6c-1.3,0.4-2.7,0.6-4.1,0.6
				c-2.2,0-4.5-0.5-6.4-1.6c-1.8-1-3.4-2.6-4.4-4.4c-1.1-2-1.7-4.2-1.6-6.4c0-2.2,0.5-4.5,1.7-6.4c1.1-1.8,2.7-3.3,4.6-4.4
				c2.1-1.1,4.4-1.6,6.8-1.6c1.9,0,3.7,0.4,5.4,1.1c1.4,0.6,2.6,1.5,3.7,2.6v-3.3H584.5z M571.2,230.7c1.6,0,3.1-0.3,4.5-1.1
				c1.3-0.7,2.3-1.7,3.1-2.9c0.8-1.3,1.1-2.7,1.1-4.2c0-1.4-0.4-2.8-1.1-4.1c-0.7-1.2-1.8-2.2-3.1-2.9c-2.8-1.4-6.2-1.4-9.1,0
				c-2.6,1.3-4.2,4-4.2,7c0,1.5,0.3,2.9,1.1,4.2c0.7,1.2,1.8,2.2,3.1,2.9C568.1,230.3,569.6,230.7,571.2,230.7L571.2,230.7z"/>
			<path class="st0" d="M610,210.2c2-0.1,3.9,0.4,5.6,1.4c1.4,0.9,2.4,2.1,3.1,3.6c0.6,1.6,1,3.3,0.9,5v14.3h-4.8v-13.8
				c0.1-1.6-0.5-3.2-1.6-4.5c-1.2-1.2-3-1.9-4.7-1.7c-1.4,0-2.7,0.3-3.9,0.9c-1.1,0.6-2,1.4-2.7,2.4c-0.6,0.9-0.9,1.9-0.9,3v13.7
				h-4.8v-23.9h4.8v4c1-1.3,2.3-2.3,3.7-3.1C606.4,210.7,608.2,210.2,610,210.2z"/>
			<path class="st0" d="M639.7,234.5H635v-19.3h-6.2v-4.6h6.2v-6.6h4.8v6.6h7.2v4.5h-7.2V234.5z"/>
			<path class="st0" d="M678.8,231.4L678.8,231.4c-0.9,0.7-1.9,1.3-3,1.7c-1.2,0.6-2.5,1-3.8,1.3c-1.4,0.3-2.8,0.5-4.3,0.5
				c-2.6,0.1-5.2-0.5-7.5-1.6c-2.1-0.9-3.8-2.4-5.1-4.3c-1.2-1.9-1.8-4-1.8-6.2c-0.1-2.4,0.6-4.8,1.9-6.8c1.3-1.9,3-3.4,5.1-4.4
				c2.2-1,4.5-1.5,6.9-1.5c2.2,0,4.4,0.5,6.4,1.5c1.8,0.9,3.4,2.3,4.5,4.1c1.2,1.8,1.7,3.9,1.7,6v2.2h-21.6c0.3,2,1.5,3.8,3.3,4.9
				c2.1,1.3,4.5,1.9,6.9,1.8c1.7,0.1,3.4-0.3,4.9-0.9c1.1-0.5,2.2-1.1,3.2-1.8L678.8,231.4z M667.3,214.5c-2,0-4,0.4-5.8,1.3
				c-1.7,0.9-2.9,2.5-3.2,4.4H675v-0.5c-0.1-1-0.6-2-1.3-2.7c-0.8-0.8-1.8-1.5-2.8-1.9C669.7,214.7,668.5,214.5,667.3,214.5z"/>
			<path class="st0" d="M721.9,202.8c3.5,0,6.2,0.7,8,2c1.8,1.4,2.8,3.6,2.7,5.9c0,1.4-0.4,2.7-1.2,3.8c-0.8,1.2-2,2.1-3.4,2.6
				c1.1,0.4,2.1,0.9,3.1,1.5c1,0.7,1.7,1.6,2.3,2.6c0.6,1.2,0.9,2.5,0.9,3.9c0.1,1.6-0.3,3.2-1,4.6c-0.7,1.2-1.6,2.1-2.8,2.8
				c-1.2,0.7-2.4,1.2-3.8,1.5c-1.3,0.3-2.7,0.4-4.1,0.4h-16v-31.7H721.9z M721.5,207.5h-9.8v8.3h10.4c1.3,0,2.6-0.4,3.8-1.1
				c1-0.7,1.7-1.8,1.6-3.1c0.1-1.3-0.6-2.5-1.7-3.2C724.4,207.8,723,207.5,721.5,207.5L721.5,207.5z M722.3,220.6h-10.6v9.3h10.9
				c1.7,0.1,3.3-0.3,4.8-1.2c1.2-0.7,2-2.1,1.9-3.6c0-1-0.3-2-1.1-2.7c-0.8-0.7-1.7-1.2-2.7-1.4
				C724.5,220.7,723.4,220.6,722.3,220.6L722.3,220.6z"/>
			<path class="st0" d="M760,216c-0.5-0.3-1.1-0.5-1.6-0.6c-0.6-0.2-1.3-0.2-2-0.2c-1.3,0-2.5,0.3-3.7,0.9c-1.1,0.6-2,1.4-2.7,2.4
				c-0.7,1-1.1,2.2-1.1,3.4v12.6h-4.8v-23.9h4.8v4.8c0.9-1.5,2.1-2.8,3.6-3.8c1.4-1,3.1-1.5,4.8-1.5c0.8,0,1.5,0.1,2.2,0.2
				c0.6,0.1,1.2,0.3,1.7,0.6L760,216z"/>
			<path class="st0" d="M794,222.6c0,2.3-0.6,4.5-1.8,6.4c-1.2,1.9-2.9,3.4-4.9,4.4c-4.5,2.1-9.8,2.1-14.3,0c-2-1-3.7-2.5-5-4.4
				c-2.4-3.9-2.4-8.9,0-12.8c1.2-1.9,2.9-3.4,5-4.4c4.5-2.1,9.8-2.1,14.3,0c2,1,3.7,2.5,4.9,4.4C793.5,218.1,794.1,220.4,794,222.6z
				 M789.2,222.6c0.1-1.5-0.3-3-1.1-4.2c-0.8-1.2-1.9-2.2-3.3-2.8c-2.9-1.4-6.3-1.4-9.2,0c-1.3,0.6-2.5,1.6-3.3,2.8
				c-1.6,2.6-1.6,5.9,0,8.5c0.8,1.2,1.9,2.2,3.3,2.9c2.9,1.4,6.3,1.4,9.2,0c1.3-0.6,2.4-1.6,3.3-2.9
				C788.8,225.6,789.2,224.1,789.2,222.6z"/>
			<path class="st0" d="M836.2,210.7l-8.9,23.8H824l-6.8-14.3l-6.6,14.3h-3.2l-8.6-23.8h5l5.5,16.8l6.2-13.1h3.4l6.3,13.2l6-16.9
				H836.2z"/>
			<path class="st0" d="M858.1,210.2c2-0.1,3.9,0.4,5.6,1.4c1.4,0.9,2.4,2.1,3.1,3.6c0.7,1.6,1,3.3,0.9,5v14.3H863v-13.8
				c0.1-1.6-0.5-3.2-1.6-4.5c-1.2-1.3-3-1.9-4.7-1.7c-1.4,0-2.7,0.3-3.9,0.9c-1.1,0.6-2,1.4-2.7,2.4c-0.6,0.9-0.9,1.9-0.9,3v13.7
				h-4.8v-23.9h4.8v4c1-1.3,2.3-2.3,3.7-3.1C854.5,210.7,856.3,210.2,858.1,210.2z"/>
		</g>
	</g>
</g>
</svg>
