<svg xmlns="http://www.w3.org/2000/svg" viewBox="0 0 377.43 63.55"><defs><style>.cls-1{fill:#59c0d2;}</style></defs><g id="Capa_2" data-name="Capa 2"><g id="Pags"><g id="Logos"><path class="cls-1" d="M59.09,28a4.5,4.5,0,0,0,3.61-1.42,4.75,4.75,0,0,0,1.17-3.14,4.59,4.59,0,0,0-1.2-3.26A4.78,4.78,0,0,0,59,18.94a4.49,4.49,0,0,0-3.61,1.42,4.66,4.66,0,0,0-1.17,3.14,4.59,4.59,0,0,0,1.2,3.26A4.76,4.76,0,0,0,59.09,28Z" transform="translate(0 -1.21)"/><path class="cls-1" d="M28.43,10.26a4.5,4.5,0,0,0,3.69-1.19A4.66,4.66,0,0,0,33.47,6a4.57,4.57,0,0,0-1-3.34,4.78,4.78,0,0,0-3.54-1.45,4.51,4.51,0,0,0-3.7,1.2,4.66,4.66,0,0,0-1.35,3.06,4.59,4.59,0,0,0,1,3.33A4.78,4.78,0,0,0,28.43,10.26Z" transform="translate(0 -1.21)"/><path class="cls-1" d="M76.78,33.63a1,1,0,0,0-1.17-.58c-1.17.36-2.36.68-3.56,1l-1.13.27-1.14.23c-.38.09-.76.16-1.14.23L67.49,35c-1.54.27-3.11.47-4.68.68s-3.15.37-4.74.53-3.2.26-4.81.34-3.22.08-4.82.06-3.2-.08-4.79-.2-3.3-.27-4.93-.49h0L32.17,16.35a.93.93,0,0,0-.83-.65l-6.86-.54a1,1,0,0,0-.92.51L16.69,28.81c-1.33-.74-2.62-1.55-3.89-2.37S10.23,24.74,9,23.82c-.31-.22-.62-.46-.93-.7l-.92-.71-1.19-.92a1,1,0,0,0-1.26.12l-3.41,3.7a.94.94,0,0,0,0,1.29c.39.42.81.83,1.24,1.21s.64.59,1,.88.65.57,1,.85a43.14,43.14,0,0,0,4.19,3.18,51.37,51.37,0,0,0,4.58,2.7L.11,60.49a1,1,0,0,0,.75,1.39l5.57.56a.94.94,0,0,0,.94-.51c1.51-2.94,7.19-14,12.09-23.61A69.58,69.58,0,0,0,33,41.88c2.88,8.86,5.93,18.21,7.13,21.87a1,1,0,0,0,.89.65c2,0,3.94.07,5.92.08a.94.94,0,0,0,.91-1.25L41,42.68c2.45.19,4.9.29,7.34.34l2.54,0h2.54c1.54,0,3.08,0,4.63-.06L60.3,63.07a1,1,0,0,0,1,.85l5.25-.55a1,1,0,0,0,.84-1.06L65.2,42.49c1.17-.15,2.35-.32,3.52-.54.43-.07.85-.16,1.28-.24l1.28-.27,1.27-.3,1.27-.35A41.6,41.6,0,0,0,78,39.42a1,1,0,0,0,.56-1.23Z" transform="translate(0 -1.21)"/><path class="cls-1" d="M109.66,17.08a9.75,9.75,0,0,1-2.43-.29,6.73,6.73,0,0,1-2-.91,7.46,7.46,0,0,1-1.64-1.5L105,12.65a7.37,7.37,0,0,0,2.22,1.94,5.43,5.43,0,0,0,2.54.57,5.53,5.53,0,0,0,1.65-.24,2.92,2.92,0,0,0,1.24-.7,1.48,1.48,0,0,0,.47-1.09,1.28,1.28,0,0,0-.21-.73,1.84,1.84,0,0,0-.59-.55,5.15,5.15,0,0,0-.88-.41,10,10,0,0,0-1-.31c-.36-.08-.74-.15-1.14-.2a13.2,13.2,0,0,1-2.13-.54,5.62,5.62,0,0,1-1.58-.85,3.49,3.49,0,0,1-1-1.21,3.71,3.71,0,0,1-.32-1.58,3.26,3.26,0,0,1,.41-1.6,4,4,0,0,1,1.16-1.27,5.81,5.81,0,0,1,1.74-.81,7.89,7.89,0,0,1,2.16-.29,8.38,8.38,0,0,1,2.26.28,5.87,5.87,0,0,1,1.81.82,5.14,5.14,0,0,1,1.33,1.34l-1.51,1.53a4.85,4.85,0,0,0-1.08-1.13,4.53,4.53,0,0,0-1.33-.68,4.87,4.87,0,0,0-1.54-.23,5,5,0,0,0-1.62.24,2.73,2.73,0,0,0-1.11.66,1.44,1.44,0,0,0-.4,1,1.5,1.5,0,0,0,.22.82,2.07,2.07,0,0,0,.65.63,4.4,4.4,0,0,0,1.1.45,12.66,12.66,0,0,0,1.53.33,15.27,15.27,0,0,1,2.14.51,7.1,7.1,0,0,1,1.71.75A3.32,3.32,0,0,1,115,11.2a2.72,2.72,0,0,1,.4,1.49,3.92,3.92,0,0,1-.71,2.33,4.62,4.62,0,0,1-2,1.53A7.9,7.9,0,0,1,109.66,17.08Z" transform="translate(0 -1.21)"/><path class="cls-1" d="M124.9,17.08a7.35,7.35,0,0,1-3.25-.68,5.44,5.44,0,0,1-2.23-1.88,4.75,4.75,0,0,1-.8-2.74,5.37,5.37,0,0,1,.46-2.28,5.24,5.24,0,0,1,1.3-1.75,5.57,5.57,0,0,1,1.94-1.13,7,7,0,0,1,2.4-.4,6,6,0,0,1,2.17.38,5.46,5.46,0,0,1,1.76,1.05,4.76,4.76,0,0,1,1.17,1.6,4.66,4.66,0,0,1,.4,2l0,1h-9.88l-.46-1.63h8.52l-.3.26v-.48a2,2,0,0,0-.57-1.17,3.41,3.41,0,0,0-1.22-.82,4.1,4.1,0,0,0-1.57-.3,5.59,5.59,0,0,0-2.13.38,3,3,0,0,0-1.4,1.16,3.71,3.71,0,0,0-.5,2,3.16,3.16,0,0,0,.57,1.89,3.67,3.67,0,0,0,1.59,1.23,5.92,5.92,0,0,0,2.34.44,5.53,5.53,0,0,0,2-.32,6.22,6.22,0,0,0,1.59-.88l1,1.49a6.17,6.17,0,0,1-1.33.81,8.2,8.2,0,0,1-3.52.78Z" transform="translate(0 -1.21)"/><path class="cls-1" d="M134.55,16.89V6.46h2.12V9.93l-.37-.51a4.32,4.32,0,0,1,.9-1.6,5,5,0,0,1,1.44-1.16,3.64,3.64,0,0,1,1.69-.42,4.62,4.62,0,0,1,1,.1,2.18,2.18,0,0,1,.74.26l-.55,2.18a3.08,3.08,0,0,0-.76-.28,4.27,4.27,0,0,0-.85-.1,3.36,3.36,0,0,0-1.28.25,3.59,3.59,0,0,0-1,.67,3,3,0,0,0-.68.94,2.63,2.63,0,0,0-.24,1.1v5.53Z" transform="translate(0 -1.21)"/><path class="cls-1" d="M150.28,16.89,145.13,6.46h2.34l3.91,8.22-.47.18,4.14-8.4h2.23L152,16.89Z" transform="translate(0 -1.21)"/><path class="cls-1" d="M162.13,4.07a1.45,1.45,0,0,1-1-.34,1.23,1.23,0,0,1-.37-1,1.24,1.24,0,0,1,.38-.93,1.42,1.42,0,0,1,1-.36,1.47,1.47,0,0,1,1,.34,1.23,1.23,0,0,1,.36.95,1.2,1.2,0,0,1-.37.93A1.45,1.45,0,0,1,162.13,4.07Zm-1,12.82V6.46h2.1V16.89Z" transform="translate(0 -1.21)"/><path class="cls-1" d="M173.32,17.08a5.92,5.92,0,0,1-2.94-.71,5.59,5.59,0,0,1-2.06-2,5.39,5.39,0,0,1,0-5.52A5.59,5.59,0,0,1,170.38,7a6,6,0,0,1,2.94-.71,7.64,7.64,0,0,1,3,.55,5,5,0,0,1,2.08,1.51l-1.16,1.51a5.4,5.4,0,0,0-1.05-.87,5.72,5.72,0,0,0-1.32-.63,4.53,4.53,0,0,0-1.38-.23,4.09,4.09,0,0,0-2,.47,3.4,3.4,0,0,0-1.35,1.28,3.49,3.49,0,0,0-.49,1.83,3.25,3.25,0,0,0,.52,1.82,3.78,3.78,0,0,0,1.38,1.28,3.91,3.91,0,0,0,1.92.48,5.06,5.06,0,0,0,1.44-.2,5.51,5.51,0,0,0,1.24-.55,6,6,0,0,0,1.05-.78l1.16,1.47a7.5,7.5,0,0,1-5,1.9Z" transform="translate(0 -1.21)"/><path class="cls-1" d="M183.6,4.07a1.47,1.47,0,0,1-1-.34,1.23,1.23,0,0,1-.36-1,1.23,1.23,0,0,1,.37-.93,1.44,1.44,0,0,1,1-.36,1.47,1.47,0,0,1,1,.34,1.23,1.23,0,0,1,.36.95,1.2,1.2,0,0,1-.37.93A1.44,1.44,0,0,1,183.6,4.07Zm-1,12.82V6.46h2.1V16.89Z" transform="translate(0 -1.21)"/><path class="cls-1" d="M195.14,17.08a6.83,6.83,0,0,1-3.15-.7,5.53,5.53,0,0,1-2.16-1.93,5,5,0,0,1-.8-2.79,5,5,0,0,1,.8-2.79A5.61,5.61,0,0,1,192,6.94a6.83,6.83,0,0,1,3.15-.7,6.7,6.7,0,0,1,3.12.7,5.57,5.57,0,0,1,2.17,1.93,5,5,0,0,1,.79,2.79,5,5,0,0,1-.79,2.79,5.5,5.5,0,0,1-2.17,1.93A6.7,6.7,0,0,1,195.14,17.08Zm0-1.86a4.36,4.36,0,0,0,2-.47,3.68,3.68,0,0,0,1.43-1.27,3.24,3.24,0,0,0,.5-1.82,3.28,3.28,0,0,0-.5-1.84,3.66,3.66,0,0,0-1.43-1.26,4.66,4.66,0,0,0-4.06,0,3.59,3.59,0,0,0-1.43,1.26,3.15,3.15,0,0,0-.5,1.83,3.16,3.16,0,0,0,.5,1.82,3.61,3.61,0,0,0,1.43,1.27A4.44,4.44,0,0,0,195.14,15.22Z" transform="translate(0 -1.21)"/><path class="cls-1" d="M217.2,17.08a5.86,5.86,0,0,1-2.91-.7,5.08,5.08,0,0,1-2-1.93,5.37,5.37,0,0,1-.72-2.79,5.28,5.28,0,0,1,.73-2.79,5.2,5.2,0,0,1,2-1.93A6.36,6.36,0,0,1,219,6.5a6.13,6.13,0,0,1,1.51.68,4.1,4.1,0,0,1,1,.93,1.76,1.76,0,0,1,.36,1l-.61,0v-7h2.1v14.7h-2.1V14.24l.41.06a1.57,1.57,0,0,1-.38,1,4.28,4.28,0,0,1-1,.89,6,6,0,0,1-1.44.68A5.62,5.62,0,0,1,217.2,17.08Zm.37-1.8a4,4,0,0,0,2-.48,3.49,3.49,0,0,0,1.84-3.14,3.51,3.51,0,0,0-.49-1.85,3.4,3.4,0,0,0-1.35-1.28,4.43,4.43,0,0,0-4,0,3.47,3.47,0,0,0-1.35,1.28,3.51,3.51,0,0,0-.49,1.85,3.48,3.48,0,0,0,.49,1.85,3.56,3.56,0,0,0,1.35,1.29A4,4,0,0,0,217.57,15.28Z" transform="translate(0 -1.21)"/><path class="cls-1" d="M233.48,17.08a7.32,7.32,0,0,1-3.25-.68A5.44,5.44,0,0,1,228,14.52a4.75,4.75,0,0,1-.81-2.74,5.37,5.37,0,0,1,.47-2.28A5.21,5.21,0,0,1,229,7.75a5.71,5.71,0,0,1,2-1.13,7,7,0,0,1,2.4-.4,6,6,0,0,1,2.17.38,5.56,5.56,0,0,1,1.76,1.05,4.76,4.76,0,0,1,1.17,1.6,4.66,4.66,0,0,1,.39,2l0,1H228.9l-.47-1.63H237l-.3.26v-.48a2.09,2.09,0,0,0-.57-1.17,3.5,3.5,0,0,0-1.22-.82,4.14,4.14,0,0,0-1.57-.3,5.55,5.55,0,0,0-2.13.38,3,3,0,0,0-1.4,1.16,3.62,3.62,0,0,0-.5,2,3.16,3.16,0,0,0,.57,1.89,3.67,3.67,0,0,0,1.59,1.23,5.85,5.85,0,0,0,2.34.44,5.57,5.57,0,0,0,2-.32,6.22,6.22,0,0,0,1.59-.88l1,1.49a6.17,6.17,0,0,1-1.33.81,9,9,0,0,1-1.7.58A8.6,8.6,0,0,1,233.48,17.08Z" transform="translate(0 -1.21)"/><path class="cls-1" d="M248.89,16.89,255,3h2.39l6,13.91H261L257.15,8c-.07-.16-.16-.4-.27-.71s-.24-.65-.38-1-.26-.7-.39-1l-.28-.76.55,0c-.1.26-.2.56-.32.87s-.23.65-.36,1l-.38.94-.32.8-3.85,8.79Zm2.67-3.38.85-2.07h7.25l.71,2.07Z" transform="translate(0 -1.21)"/><path class="cls-1" d="M267.12,21.26V6.46h2.12V8.84l-.32-.18a2.17,2.17,0,0,1,.78-1.12,5.3,5.3,0,0,1,1.59-.91,5.73,5.73,0,0,1,2-.35,5.86,5.86,0,0,1,2.89.69,5.11,5.11,0,0,1,1.95,1.91,5.33,5.33,0,0,1,.72,2.78,5.53,5.53,0,0,1-.7,2.77,5.05,5.05,0,0,1-2,1.93,5.67,5.67,0,0,1-2.84.7,5.81,5.81,0,0,1-2.12-.38,5.55,5.55,0,0,1-1.66-1,2.44,2.44,0,0,1-.84-1.15l.53-.28v7ZM273,15.18a4.18,4.18,0,0,0,2-.46,3.46,3.46,0,0,0,1.35-1.25,3.26,3.26,0,0,0,.5-1.81,3.33,3.33,0,0,0-.49-1.8A3.49,3.49,0,0,0,275,8.62a4.21,4.21,0,0,0-2-.46,4.26,4.26,0,0,0-2,.45,3.4,3.4,0,0,0-1.36,1.24,3.29,3.29,0,0,0-.5,1.81,3.26,3.26,0,0,0,.5,1.81A3.42,3.42,0,0,0,271,14.72,4.26,4.26,0,0,0,273,15.18Z" transform="translate(0 -1.21)"/><path class="cls-1" d="M288,17.08a6.83,6.83,0,0,1-3.15-.7,5.56,5.56,0,0,1-2.17-1.93,5.06,5.06,0,0,1-.79-2.79,5.06,5.06,0,0,1,.79-2.79,5.64,5.64,0,0,1,2.17-1.93,7.37,7.37,0,0,1,6.27,0,5.57,5.57,0,0,1,2.17,1.93,5,5,0,0,1,.79,2.79,5,5,0,0,1-.79,2.79,5.5,5.5,0,0,1-2.17,1.93A6.76,6.76,0,0,1,288,17.08Zm0-1.86a4.36,4.36,0,0,0,2-.47,3.68,3.68,0,0,0,1.43-1.27,3.15,3.15,0,0,0,.49-1.82,3.2,3.2,0,0,0-.49-1.84,3.66,3.66,0,0,0-1.43-1.26,4.66,4.66,0,0,0-4.06,0,3.59,3.59,0,0,0-1.43,1.26,3.08,3.08,0,0,0-.5,1.83,3.09,3.09,0,0,0,.5,1.82A3.61,3.61,0,0,0,286,14.75,4.44,4.44,0,0,0,288,15.22Z" transform="translate(0 -1.21)"/><path class="cls-1" d="M299.67,21.45l2.44-4.86,0,1.61L296.21,6.46h2.44l3.28,6.87c.24.45.46.89.65,1.32a7.12,7.12,0,0,1,.41,1.2l-.43.08.51-1.23c.19-.45.4-.93.63-1.45l2.91-6.79h2.46L304,16.92l-2.11,4.53Z" transform="translate(0 -1.21)"/><path class="cls-1" d="M317.48,17.08a6.83,6.83,0,0,1-3.15-.7,5.47,5.47,0,0,1-2.16-1.93,5,5,0,0,1-.8-2.79,5,5,0,0,1,.8-2.79,5.54,5.54,0,0,1,2.16-1.93,7.37,7.37,0,0,1,6.27,0,5.57,5.57,0,0,1,2.17,1.93,5,5,0,0,1,.79,2.79,5,5,0,0,1-.79,2.79,5.5,5.5,0,0,1-2.17,1.93A6.76,6.76,0,0,1,317.48,17.08Zm0-1.86a4.36,4.36,0,0,0,2-.47,3.68,3.68,0,0,0,1.43-1.27,3.15,3.15,0,0,0,.49-1.82,3.2,3.2,0,0,0-.49-1.84,3.66,3.66,0,0,0-1.43-1.26,4.66,4.66,0,0,0-4.06,0A3.59,3.59,0,0,0,314,9.83a3.08,3.08,0,0,0-.5,1.83,3.09,3.09,0,0,0,.5,1.82,3.61,3.61,0,0,0,1.43,1.27A4.44,4.44,0,0,0,317.48,15.22Z" transform="translate(0 -1.21)"/><path class="cls-1" d="M339.34,17.08a5.45,5.45,0,0,1-2.79-.7,5.14,5.14,0,0,1-1.93-1.94,5.62,5.62,0,0,1-.7-2.8,5.19,5.19,0,0,1,2.71-4.71,5.89,5.89,0,0,1,2.87-.69,6.07,6.07,0,0,1,1.8.25,4.62,4.62,0,0,1,1.43.68,3.9,3.9,0,0,1,1,1,2.19,2.19,0,0,1,.41,1.11l-.51-.08V6.46h2.1V16.89h-2.1V14.24l.45,0a2.39,2.39,0,0,1-.48,1,4.42,4.42,0,0,1-1.06.92,6.61,6.61,0,0,1-1.47.68A5.75,5.75,0,0,1,339.34,17.08Zm.52-1.88a4.26,4.26,0,0,0,2-.46,3.35,3.35,0,0,0,1.35-1.26,3.45,3.45,0,0,0,.49-1.84,3.32,3.32,0,0,0-.49-1.79,3.42,3.42,0,0,0-1.35-1.26,4.14,4.14,0,0,0-2-.46,4.06,4.06,0,0,0-2,.46,3.46,3.46,0,0,0-1.34,1.26,3.32,3.32,0,0,0-.49,1.79,3.45,3.45,0,0,0,.49,1.84,3.39,3.39,0,0,0,1.34,1.26A4.18,4.18,0,0,0,339.86,15.2Z" transform="translate(0 -1.21)"/><path class="cls-1" d="M104.53,40.72V26h2.1v14.7Z" transform="translate(0 -1.21)"/><path class="cls-1" d="M115.91,40.92a5.45,5.45,0,0,1-2.79-.7,5.11,5.11,0,0,1-1.92-1.94,5.55,5.55,0,0,1-.71-2.8,5.28,5.28,0,0,1,.73-2.79,5.08,5.08,0,0,1,2-1.92,5.89,5.89,0,0,1,2.87-.69,6.42,6.42,0,0,1,1.8.24,5.06,5.06,0,0,1,1.44.69,4,4,0,0,1,1,1,2.16,2.16,0,0,1,.41,1.11l-.51-.08V30.29h2.1V40.72h-2.1V38.08l.45,0a2.1,2.1,0,0,1-.48,1,4.07,4.07,0,0,1-1.06.93,6.17,6.17,0,0,1-1.47.67A5.41,5.41,0,0,1,115.91,40.92Zm.53-1.89a4.25,4.25,0,0,0,2-.45,3.4,3.4,0,0,0,1.84-3.1,3.32,3.32,0,0,0-.49-1.79,3.42,3.42,0,0,0-1.35-1.26,4.14,4.14,0,0,0-2-.47,4.08,4.08,0,0,0-2,.47,3.53,3.53,0,0,0-1.34,1.26,3.32,3.32,0,0,0-.49,1.79,3.45,3.45,0,0,0,.49,1.84,3.53,3.53,0,0,0,1.34,1.26A4.19,4.19,0,0,0,116.44,39Z" transform="translate(0 -1.21)"/><path class="cls-1" d="M134.57,40.72v-2h2.87V28.86h-2.87v-2h7.94v2h-2.87v9.82h2.87v2Z" transform="translate(0 -1.21)"/><path class="cls-1" d="M147.6,40.72V30.29h2.09v2.47l-.53.16a4.46,4.46,0,0,1,1-1.36,5.33,5.33,0,0,1,1.56-1.07,4.48,4.48,0,0,1,1.92-.41,4.78,4.78,0,0,1,2.35.52,3.38,3.38,0,0,1,1.42,1.5,5.41,5.41,0,0,1,.46,2.35v6.27h-2.09V34.66a3,3,0,0,0-.34-1.5,2.17,2.17,0,0,0-1-.91A3.13,3.13,0,0,0,153,32a3.52,3.52,0,0,0-2.36.88,2.86,2.86,0,0,0-.69.88,2.15,2.15,0,0,0-.25,1v6H147.6Z" transform="translate(0 -1.21)"/><path class="cls-1" d="M161.82,32.28v-2h7.94v2Zm2.71,8.44V27.39h2.1V40.72Z" transform="translate(0 -1.21)"/><path class="cls-1" d="M178.9,40.92a7.54,7.54,0,0,1-3.26-.68,5.58,5.58,0,0,1-2.23-1.88,4.84,4.84,0,0,1-.8-2.74,5.21,5.21,0,0,1,1.76-4,6,6,0,0,1,1.94-1.14,7.28,7.28,0,0,1,2.4-.39,6.14,6.14,0,0,1,2.17.37,5.48,5.48,0,0,1,1.76,1.06,4.64,4.64,0,0,1,1.57,3.63l0,1h-9.87l-.47-1.62h8.53l-.31.25v-.47a2,2,0,0,0-.57-1.17,3.32,3.32,0,0,0-1.22-.82,4.1,4.1,0,0,0-1.57-.3,5.5,5.5,0,0,0-2.12.38,3,3,0,0,0-1.41,1.16,3.71,3.71,0,0,0-.5,2,3.16,3.16,0,0,0,.58,1.89,3.59,3.59,0,0,0,1.58,1.23,5.92,5.92,0,0,0,2.34.43,5.64,5.64,0,0,0,2-.31,7,7,0,0,0,1.58-.88l1,1.49a6.23,6.23,0,0,1-1.32.81,9.17,9.17,0,0,1-1.7.57A8,8,0,0,1,178.9,40.92Z" transform="translate(0 -1.21)"/><path class="cls-1" d="M193.59,45.29a9.07,9.07,0,0,1-2.62-.36A6.15,6.15,0,0,1,189,44l.76-1.63a7.31,7.31,0,0,0,1,.5,8.79,8.79,0,0,0,1.31.4,7.14,7.14,0,0,0,1.48.15,4.54,4.54,0,0,0,2-.39,3,3,0,0,0,1.26-1.17,3.72,3.72,0,0,0,.45-1.89V38.32l.22.14a2.14,2.14,0,0,1-.78,1.16,5.23,5.23,0,0,1-1.65.93,5.79,5.79,0,0,1-2.07.37,5.92,5.92,0,0,1-2.92-.7,5.27,5.27,0,0,1-2.74-4.72,5.24,5.24,0,0,1,2.79-4.72,6.15,6.15,0,0,1,3-.7,5.44,5.44,0,0,1,1.17.13,8.14,8.14,0,0,1,1.21.39,6.84,6.84,0,0,1,1.08.57,3.73,3.73,0,0,1,.81.68,1.33,1.33,0,0,1,.35.73l-.44.16V30.29h2.09v9.48a6.07,6.07,0,0,1-.43,2.39,4.8,4.8,0,0,1-1.22,1.72,4.88,4.88,0,0,1-1.83,1A7,7,0,0,1,193.59,45.29ZM193.45,39a4.46,4.46,0,0,0,2-.45,3.47,3.47,0,0,0,0-6.18,4.32,4.32,0,0,0-2-.46,4.44,4.44,0,0,0-2.06.47A3.68,3.68,0,0,0,190,33.68a3.44,3.44,0,0,0,0,3.64,3.74,3.74,0,0,0,1.41,1.26A4.56,4.56,0,0,0,193.45,39Z" transform="translate(0 -1.21)"/><path class="cls-1" d="M204.52,40.72V30.29h2.12v3.48l-.37-.52a4.48,4.48,0,0,1,.9-1.6,5.11,5.11,0,0,1,1.44-1.15,3.67,3.67,0,0,1,1.69-.42,5.36,5.36,0,0,1,1,.09,2.6,2.6,0,0,1,.74.26l-.55,2.19a2.94,2.94,0,0,0-.76-.28,3.56,3.56,0,0,0-.84-.1,3.23,3.23,0,0,0-1.29.25,3.38,3.38,0,0,0-1,.66,3.17,3.17,0,0,0-.69,1,2.63,2.63,0,0,0-.24,1.1v5.52Z" transform="translate(0 -1.21)"/><path class="cls-1" d="M219.54,40.92a5.51,5.51,0,0,1-2.79-.7,5.18,5.18,0,0,1-1.92-1.94,5.54,5.54,0,0,1-.7-2.8,5.37,5.37,0,0,1,.72-2.79,5,5,0,0,1,2-1.92,5.86,5.86,0,0,1,2.87-.69,6.42,6.42,0,0,1,1.8.24,5,5,0,0,1,1.43.69,4.07,4.07,0,0,1,1,1,2.25,2.25,0,0,1,.41,1.11l-.51-.08V30.29h2.09V40.72h-2.09V38.08l.44,0a2.17,2.17,0,0,1-.47,1,4.24,4.24,0,0,1-1.06.93,6.07,6.07,0,0,1-1.48.67A5.37,5.37,0,0,1,219.54,40.92Zm.53-1.89a4.26,4.26,0,0,0,2-.45,3.56,3.56,0,0,0,1.35-1.26,3.45,3.45,0,0,0,.49-1.84,3.32,3.32,0,0,0-.49-1.79,3.56,3.56,0,0,0-1.35-1.26,4.15,4.15,0,0,0-2-.47,4.07,4.07,0,0,0-2,.47,3.56,3.56,0,0,0-1.35,1.26,3.4,3.4,0,0,0-.48,1.79,3.36,3.36,0,0,0,1.83,3.1A4.18,4.18,0,0,0,220.07,39Z" transform="translate(0 -1.21)"/><path class="cls-1" d="M235.72,40.92a6,6,0,0,1-2.94-.71,5.49,5.49,0,0,1-2.05-2,5.33,5.33,0,0,1,0-5.52,5.49,5.49,0,0,1,2.05-2,5.92,5.92,0,0,1,2.94-.71,7.64,7.64,0,0,1,2.95.55,5,5,0,0,1,2.08,1.51l-1.16,1.51a4.82,4.82,0,0,0-1.05-.87,5.34,5.34,0,0,0-1.32-.63,4.53,4.53,0,0,0-1.38-.23,4.09,4.09,0,0,0-2,.47,3.4,3.4,0,0,0-1.35,1.28A3.44,3.44,0,0,0,232,35.5a3.28,3.28,0,0,0,.52,1.82,3.86,3.86,0,0,0,1.38,1.28,3.91,3.91,0,0,0,1.93.47,5,5,0,0,0,1.43-.19,6,6,0,0,0,1.24-.55,5.55,5.55,0,0,0,1.05-.79L240.75,39a7.44,7.44,0,0,1-5,1.91Z" transform="translate(0 -1.21)"/><path class="cls-1" d="M246,27.91a1.47,1.47,0,0,1-1-.34,1.23,1.23,0,0,1-.36-.95,1.2,1.2,0,0,1,.37-.93,1.44,1.44,0,0,1,1-.36,1.47,1.47,0,0,1,1,.34,1.37,1.37,0,0,1,0,1.88A1.44,1.44,0,0,1,246,27.91Zm-1,12.81V30.29h2.1V40.72Z" transform="translate(0 -1.21)"/><path class="cls-1" d="M257.54,40.92a6.75,6.75,0,0,1-3.14-.7,5.57,5.57,0,0,1-2.17-1.93,5.27,5.27,0,0,1,0-5.58,5.5,5.5,0,0,1,2.17-1.93,7.35,7.35,0,0,1,6.26,0,5.5,5.5,0,0,1,2.17,1.93,5.27,5.27,0,0,1,0,5.58,5.57,5.57,0,0,1-2.17,1.93A6.7,6.7,0,0,1,257.54,40.92Zm0-1.87a4.39,4.39,0,0,0,2-.46A3.72,3.72,0,0,0,261,37.32a3.6,3.6,0,0,0,0-3.66,3.62,3.62,0,0,0-1.42-1.26,4.52,4.52,0,0,0-2-.46,4.4,4.4,0,0,0-2,.47,3.62,3.62,0,0,0-1.44,1.26,3.58,3.58,0,0,0,0,3.65,3.64,3.64,0,0,0,1.44,1.27A4.39,4.39,0,0,0,257.54,39.05ZM256.2,28.69l-.69-1,2.91-2.48,1.32,1.63Z" transform="translate(0 -1.21)"/><path class="cls-1" d="M267.84,40.72V30.29h2.09v2.47l-.52.16a4.26,4.26,0,0,1,.95-1.36,5.46,5.46,0,0,1,1.56-1.07,4.48,4.48,0,0,1,1.92-.41,4.78,4.78,0,0,1,2.35.52,3.32,3.32,0,0,1,1.42,1.5,5.41,5.41,0,0,1,.47,2.35v6.27H276V34.66a3,3,0,0,0-.34-1.5,2.2,2.2,0,0,0-.95-.91,3.2,3.2,0,0,0-1.46-.29,3.52,3.52,0,0,0-2.36.88,2.86,2.86,0,0,0-.69.88,2.28,2.28,0,0,0-.25,1v6h-2.09Z" transform="translate(0 -1.21)"/><path class="cls-1" d="M290.76,40.72V26.82h10.11v2.06H293v9.78h7.92v2.06Zm1.07-6.1V32.56h7.92v2.06Z" transform="translate(0 -1.21)"/><path class="cls-1" d="M309.5,40.92a8.18,8.18,0,0,1-2.82-.46A5,5,0,0,1,304.55,39L306,37.8a4.46,4.46,0,0,0,1.58,1.08,5.34,5.34,0,0,0,2,.35,4.08,4.08,0,0,0,.85-.08,3.4,3.4,0,0,0,.78-.23,1.58,1.58,0,0,0,.55-.42,1,1,0,0,0,.2-.6,1,1,0,0,0-.69-.89c-.25-.09-.54-.19-.9-.3s-.76-.2-1.24-.3a15.68,15.68,0,0,1-2.07-.58,4.29,4.29,0,0,1-1.41-.81,2.43,2.43,0,0,1-.58-.85,2.86,2.86,0,0,1-.19-1.09,2.35,2.35,0,0,1,.33-1.22,3,3,0,0,1,1-.95,5.26,5.26,0,0,1,1.42-.62,7.08,7.08,0,0,1,1.76-.21,8.24,8.24,0,0,1,1.69.18,7.83,7.83,0,0,1,1.63.56,4.24,4.24,0,0,1,1.28.92l-1.17,1.34a5.83,5.83,0,0,0-1-.68,7,7,0,0,0-1.19-.47,4.44,4.44,0,0,0-1.14-.17,6.82,6.82,0,0,0-.9.07,3.14,3.14,0,0,0-.78.22,1.4,1.4,0,0,0-.54.39.84.84,0,0,0-.21.58.83.83,0,0,0,.14.46,1.22,1.22,0,0,0,.35.37,3.83,3.83,0,0,0,.94.4,12.74,12.74,0,0,0,1.4.33,15.87,15.87,0,0,1,1.89.51,5,5,0,0,1,1.37.71,2.08,2.08,0,0,1,.7.81,2.39,2.39,0,0,1,.24,1.09,2.58,2.58,0,0,1-.6,1.7,3.89,3.89,0,0,1-1.6,1.12A5.92,5.92,0,0,1,309.5,40.92Z" transform="translate(0 -1.21)"/><path class="cls-1" d="M322.73,40.92a6,6,0,0,1-2.94-.71,5.59,5.59,0,0,1-2.06-2,5.39,5.39,0,0,1,0-5.52,5.59,5.59,0,0,1,2.06-2,5.92,5.92,0,0,1,2.94-.71,7.67,7.67,0,0,1,2.95.55,5,5,0,0,1,2.08,1.51l-1.16,1.51a5.07,5.07,0,0,0-1.05-.87,5.58,5.58,0,0,0-1.33-.63,4.42,4.42,0,0,0-1.37-.23,4.06,4.06,0,0,0-2,.47,3.41,3.41,0,0,0-1.84,3.11,3.35,3.35,0,0,0,.51,1.82,3.88,3.88,0,0,0,3.31,1.75,5.12,5.12,0,0,0,1.44-.19,6,6,0,0,0,1.24-.55,6.27,6.27,0,0,0,1.05-.79L327.76,39a7.45,7.45,0,0,1-2.17,1.36A7.29,7.29,0,0,1,322.73,40.92Z" transform="translate(0 -1.21)"/><path class="cls-1" d="M336.77,40.92a6.75,6.75,0,0,1-3.14-.7,5.57,5.57,0,0,1-2.17-1.93,5.32,5.32,0,0,1,0-5.58,5.5,5.5,0,0,1,2.17-1.93,7.35,7.35,0,0,1,6.26,0,5.5,5.5,0,0,1,2.17,1.93,5.27,5.27,0,0,1,0,5.58,5.57,5.57,0,0,1-2.17,1.93A6.7,6.7,0,0,1,336.77,40.92Zm0-1.87a4.39,4.39,0,0,0,2-.46,3.72,3.72,0,0,0,1.42-1.27,3.6,3.6,0,0,0,0-3.66,3.62,3.62,0,0,0-1.42-1.26,4.52,4.52,0,0,0-2-.46,4.4,4.4,0,0,0-2,.47,3.69,3.69,0,0,0-1.44,1.26,3.23,3.23,0,0,0-.5,1.83,3.26,3.26,0,0,0,.5,1.82,3.71,3.71,0,0,0,1.44,1.27A4.39,4.39,0,0,0,336.77,39.05Z" transform="translate(0 -1.21)"/><path class="cls-1" d="M347,40.72V26h2.09v14.7Z" transform="translate(0 -1.21)"/><path class="cls-1" d="M358.38,40.92a5.44,5.44,0,0,1-2.78-.7,5.14,5.14,0,0,1-1.93-1.94,5.65,5.65,0,0,1-.7-2.8,5.37,5.37,0,0,1,.72-2.79,5.17,5.17,0,0,1,2-1.92,5.89,5.89,0,0,1,2.87-.69,6.42,6.42,0,0,1,1.8.24,4.88,4.88,0,0,1,1.43.69,3.9,3.9,0,0,1,1,1,2.16,2.16,0,0,1,.41,1.11l-.51-.08V30.29h2.1V40.72h-2.1V38.08l.45,0a2.3,2.3,0,0,1-.48,1,4.24,4.24,0,0,1-1.06.93,6.07,6.07,0,0,1-1.48.67A5.37,5.37,0,0,1,358.38,40.92Zm.53-1.89a4.26,4.26,0,0,0,2-.45,3.4,3.4,0,0,0,1.84-3.1,3.32,3.32,0,0,0-.49-1.79,3.42,3.42,0,0,0-1.35-1.26,4.15,4.15,0,0,0-2-.47,4.07,4.07,0,0,0-2,.47,3.46,3.46,0,0,0-1.34,1.26,3.32,3.32,0,0,0-.49,1.79,3.41,3.41,0,0,0,1.83,3.1A4.18,4.18,0,0,0,358.91,39Z" transform="translate(0 -1.21)"/><path class="cls-1" d="M369.92,40.72V30.29H372v3.48l-.37-.52a4.48,4.48,0,0,1,.9-1.6A5,5,0,0,1,374,30.5a3.61,3.61,0,0,1,1.69-.42,5.33,5.33,0,0,1,1,.09,2.6,2.6,0,0,1,.74.26l-.54,2.19a3.16,3.16,0,0,0-.77-.28,3.56,3.56,0,0,0-.84-.1,3.18,3.18,0,0,0-1.28.25,3.31,3.31,0,0,0-1,.66,3.13,3.13,0,0,0-.68,1,2.49,2.49,0,0,0-.25,1.1v5.52Z" transform="translate(0 -1.21)"/><path class="cls-1" d="M103,64.56l6.09-13.9h2.38l6,13.9h-2.39l-3.86-8.86c-.07-.16-.16-.39-.28-.7l-.37-1c-.14-.35-.27-.7-.39-1l-.29-.76.55,0c-.09.26-.2.55-.31.87s-.24.64-.37,1l-.37.95c-.13.29-.24.56-.33.8l-3.85,8.78Zm2.67-3.38.86-2.06h7.24l.71,2.06Z" transform="translate(0 -1.21)"/><path class="cls-1" d="M121.16,64.56V49.86h2.1v14.7Z" transform="translate(0 -1.21)"/><path class="cls-1" d="M128.36,64.56V54.13h2.12v2.54l-.55.08a3.31,3.31,0,0,1,.57-1,4.5,4.5,0,0,1,1-.9,5.87,5.87,0,0,1,1.35-.67,4.92,4.92,0,0,1,1.6-.26,4.84,4.84,0,0,1,1.79.32,2.93,2.93,0,0,1,1.29,1,3.6,3.6,0,0,1,.66,1.62l-.49-.12.15-.33a4.15,4.15,0,0,1,.68-.85,6.38,6.38,0,0,1,2.33-1.39A4.59,4.59,0,0,1,142.3,54a4.33,4.33,0,0,1,2.3.54A3.13,3.13,0,0,1,145.89,56a6.23,6.23,0,0,1,.4,2.36v6.18h-2.11v-6a3.91,3.91,0,0,0-.26-1.5,1.91,1.91,0,0,0-.78-.92,2.66,2.66,0,0,0-1.38-.32,3.93,3.93,0,0,0-1.34.23,3.3,3.3,0,0,0-1.09.64,2.85,2.85,0,0,0-.72.94,2.65,2.65,0,0,0-.25,1.15v5.76h-2.12v-6A3.39,3.39,0,0,0,136,57.1a2.07,2.07,0,0,0-.85-.93,2.86,2.86,0,0,0-1.45-.33,3.22,3.22,0,0,0-1.26.24,3.74,3.74,0,0,0-1,.63,3,3,0,0,0-.67.89,2.36,2.36,0,0,0-.23,1v6Z" transform="translate(0 -1.21)"/><path class="cls-1" d="M152.62,51.75a1.42,1.42,0,0,1-1-.34,1.2,1.2,0,0,1-.37-.95,1.24,1.24,0,0,1,.37-.94,1.75,1.75,0,0,1,2.07,0,1.38,1.38,0,0,1,0,1.89A1.42,1.42,0,0,1,152.62,51.75Zm-1,12.81V54.13h2.09V64.56Z" transform="translate(0 -1.21)"/><path class="cls-1" d="M159.18,64.56V54.13h2.11v3.48l-.36-.52a4.31,4.31,0,0,1,.89-1.6,5,5,0,0,1,1.45-1.15,3.63,3.63,0,0,1,1.69-.43,5.25,5.25,0,0,1,1,.1,2.81,2.81,0,0,1,.75.26l-.55,2.19a3,3,0,0,0-.77-.28,3.56,3.56,0,0,0-.84-.1,3.18,3.18,0,0,0-1.28.25,3.17,3.17,0,0,0-1.71,1.61,2.49,2.49,0,0,0-.25,1.1v5.52Z" transform="translate(0 -1.21)"/><path class="cls-1" d="M174.2,64.76a5.36,5.36,0,0,1-2.79-.71,5,5,0,0,1-1.92-1.93,5.55,5.55,0,0,1-.71-2.8,5.28,5.28,0,0,1,.73-2.79,5.08,5.08,0,0,1,2-1.92,5.89,5.89,0,0,1,2.87-.7,6.42,6.42,0,0,1,1.8.25,5.06,5.06,0,0,1,1.44.69,4,4,0,0,1,1,1,2.16,2.16,0,0,1,.41,1.1l-.51-.08v-2.7h2.1V64.56h-2.1V61.92l.45,0a2.19,2.19,0,0,1-.48,1,4.07,4.07,0,0,1-1.06.93,6.59,6.59,0,0,1-1.47.67A5.76,5.76,0,0,1,174.2,64.76Zm.53-1.89a4.25,4.25,0,0,0,2-.45,3.42,3.42,0,0,0,1.84-3.1,3.32,3.32,0,0,0-.49-1.79,3.42,3.42,0,0,0-1.35-1.26,4.14,4.14,0,0,0-2-.47,4.08,4.08,0,0,0-2,.47,3.46,3.46,0,0,0-1.34,1.26,3.32,3.32,0,0,0-.49,1.79,3.44,3.44,0,0,0,1.83,3.1A4.19,4.19,0,0,0,174.73,62.87Z" transform="translate(0 -1.21)"/><path class="cls-1" d="M185.74,64.56V54.13h2.09V56.6l-.53.15a4.58,4.58,0,0,1,1-1.36,5.3,5.3,0,0,1,1.56-1.06,4.48,4.48,0,0,1,1.92-.42,4.78,4.78,0,0,1,2.35.53,3.38,3.38,0,0,1,1.42,1.5,5.4,5.4,0,0,1,.46,2.34v6.28h-2.09V58.5a3,3,0,0,0-.34-1.5,2.14,2.14,0,0,0-.95-.91,3.08,3.08,0,0,0-1.46-.29,3.51,3.51,0,0,0-1.31.24,3.67,3.67,0,0,0-1,.63,2.89,2.89,0,0,0-.69.89,2.12,2.12,0,0,0-.25,1v6h-2.09Z" transform="translate(0 -1.21)"/><path class="cls-1" d="M200,56.12v-2h7.94v2Zm2.71,8.44V51.23h2.1V64.56Z" transform="translate(0 -1.21)"/><path class="cls-1" d="M217,64.76a7.54,7.54,0,0,1-3.26-.68,5.58,5.58,0,0,1-2.23-1.88,4.84,4.84,0,0,1-.8-2.74,5.45,5.45,0,0,1,.47-2.29,5.31,5.31,0,0,1,1.29-1.75,5.93,5.93,0,0,1,1.94-1.13,7.3,7.3,0,0,1,2.41-.4,6.13,6.13,0,0,1,2.16.38,5.46,5.46,0,0,1,1.76,1,4.6,4.6,0,0,1,1.17,1.6,4.74,4.74,0,0,1,.4,2l0,.95h-9.87L212,58.28h8.53l-.31.26v-.47a2,2,0,0,0-.57-1.18,3.43,3.43,0,0,0-1.22-.81,4.09,4.09,0,0,0-1.56-.3,5.51,5.51,0,0,0-2.13.38,3,3,0,0,0-1.41,1.16,3.68,3.68,0,0,0-.49,2,3.13,3.13,0,0,0,.57,1.88A3.74,3.74,0,0,0,215,62.44a5.92,5.92,0,0,0,2.34.43,5.41,5.41,0,0,0,2-.32,6.63,6.63,0,0,0,1.58-.87l1,1.49a6.23,6.23,0,0,1-1.32.81,9.17,9.17,0,0,1-1.7.57A8,8,0,0,1,217,64.76Z" transform="translate(0 -1.21)"/><path class="cls-1" d="M234.07,64.56V50.66h6.68a7.3,7.3,0,0,1,2.56.39,3.24,3.24,0,0,1,1.58,1.19,3.28,3.28,0,0,1,.54,1.91,2.87,2.87,0,0,1-.69,1.92,3.54,3.54,0,0,1-2,1.1l.06-.38a5.17,5.17,0,0,1,1.69.68,3.65,3.65,0,0,1,1.21,1.23,3.49,3.49,0,0,1,.44,1.77,4.18,4.18,0,0,1-.39,1.86,3.47,3.47,0,0,1-1.1,1.27,5.19,5.19,0,0,1-1.62.72,7.89,7.89,0,0,1-2,.24Zm2.2-8.18h4.56a2.91,2.91,0,0,0,1.19-.24,2.13,2.13,0,0,0,.86-.66,1.64,1.64,0,0,0-.4-2.31,3.53,3.53,0,0,0-1.89-.45h-4.32Zm0,6.12H241a4.67,4.67,0,0,0,1.54-.23,2.19,2.19,0,0,0,1-.7,1.81,1.81,0,0,0,.36-1.14,1.6,1.6,0,0,0-.41-1.13,2.56,2.56,0,0,0-1.1-.65,5.13,5.13,0,0,0-1.5-.21h-4.66Z" transform="translate(0 -1.21)"/><path class="cls-1" d="M250.48,64.56V54.13h2.11v3.48l-.36-.52a4.31,4.31,0,0,1,.89-1.6,5,5,0,0,1,1.45-1.15,3.63,3.63,0,0,1,1.69-.43,5.25,5.25,0,0,1,1,.1,2.81,2.81,0,0,1,.75.26l-.55,2.19a3,3,0,0,0-.77-.28,3.56,3.56,0,0,0-.84-.1,3.18,3.18,0,0,0-1.28.25,3.17,3.17,0,0,0-1.71,1.61,2.49,2.49,0,0,0-.25,1.1v5.52Z" transform="translate(0 -1.21)"/><path class="cls-1" d="M266.29,64.76a6.64,6.64,0,0,1-3.14-.71A5.55,5.55,0,0,1,261,62.13a5.32,5.32,0,0,1,0-5.58,5.5,5.5,0,0,1,2.17-1.93,7.28,7.28,0,0,1,6.27,0,5.53,5.53,0,0,1,2.16,1.93,5.27,5.27,0,0,1,0,5.58,5.59,5.59,0,0,1-2.16,1.92A6.65,6.65,0,0,1,266.29,64.76Zm0-1.87a4.39,4.39,0,0,0,2-.46,3.66,3.66,0,0,0,1.42-1.28,3.13,3.13,0,0,0,.5-1.81,3.2,3.2,0,0,0-.5-1.84,3.54,3.54,0,0,0-1.42-1.26,4.66,4.66,0,0,0-4.06,0,3.69,3.69,0,0,0-1.44,1.26,3.56,3.56,0,0,0,0,3.64,3.65,3.65,0,0,0,1.44,1.28A4.42,4.42,0,0,0,266.29,62.89Z" transform="translate(0 -1.21)"/><path class="cls-1" d="M278.24,64.56l-3.77-10.43,2.2,0,2.63,8-.47,0,3-6.26h1.49l3,6.28-.47,0,2.85-8h2.12L287,64.56H285.5l-3.39-7.17.87-.06-3.32,7.23Z" transform="translate(0 -1.21)"/><path class="cls-1" d="M294.46,64.56V54.13h2.1V56.6l-.53.15a4.37,4.37,0,0,1,1-1.36,5.58,5.58,0,0,1,1.56-1.06,4.48,4.48,0,0,1,1.92-.42,4.78,4.78,0,0,1,2.35.53,3.32,3.32,0,0,1,1.42,1.5,5.39,5.39,0,0,1,.47,2.34v6.28h-2.1V58.5a3,3,0,0,0-.34-1.5,2.14,2.14,0,0,0-.95-.91,3.08,3.08,0,0,0-1.46-.29,3.51,3.51,0,0,0-1.31.24,3.67,3.67,0,0,0-1.05.63,2.89,2.89,0,0,0-.69.89,2.23,2.23,0,0,0-.24,1v6h-2.1Z" transform="translate(0 -1.21)"/></g></g></g></svg>