<svg xmlns="http://www.w3.org/2000/svg" viewBox="0 0 552.43 249.83"><defs><style>.cls-1{fill:#59c1d3;}</style></defs><g id="Capa_2" data-name="Capa 2"><g id="Capa_2-2" data-name="Capa 2"><g id="tipo_vector" data-name="tipo vector"><path class="cls-1" d="M351,56.57q4.17,3.51,11.84,2.65t10.87-5.68a14.83,14.83,0,0,0,2.61-10.26,14.44,14.44,0,0,0-4.89-9.87c-2.79-2.34-6.72-3.23-11.82-2.65s-8.75,2.48-10.89,5.68a14.86,14.86,0,0,0-2.6,10.27A14.47,14.47,0,0,0,351,56.57Z"/><path class="cls-1" d="M552.39,145.19l-3.16-17.59a2.53,2.53,0,0,0-2.93-2L464.46,140.3l-8.24-44.18c17.57-5,34.92-10.68,52-16.9A1.76,1.76,0,0,0,509.3,77l-5.87-16.81a1.73,1.73,0,0,0-2.19-1.08c-8.44,2.75-16.89,5.46-25.37,8Q464,70.78,452.11,74.06L445.27,37.4l82.38-14.83a2,2,0,0,0,1.59-2.27L525.87,1.61A2,2,0,0,0,523.6,0l-105.8,19,11.27,61.08q-3.84,1-7.69,1.86c-4.57,1.08-9.16,2.1-13.74,3.1s-9.17,2-13.77,2.89a507.49,507.49,0,0,1-55.42,8.06c-9.26.75-18.55,1.23-27.76,1.13a254.8,254.8,0,0,1-28.06-1.75h0l-24.5-73.83a1.66,1.66,0,0,0-1.45-1.14l-23.48-1.84a1.67,1.67,0,0,0-1.61.89L204.45,71.35c-8-4.12-15.86-8.67-23.51-13.58s-15.42-10.27-23-15.8-15.16-11.27-23-17l-1.68-1.2A180.06,180.06,0,0,0,109.28,8.9a89.89,89.89,0,0,0-13.2-5.46l-.06,0c-.67-.22-1.35-.42-2-.62A60.64,60.64,0,0,0,85.4,1C83.44.81,81,.61,79.46.57a100.62,100.62,0,0,0-14.34.64,51.84,51.84,0,0,0-24.6,9.57A36,36,0,0,0,27,31.7q-5,20.09,6.68,34T68.43,89.6Q86.94,97.37,96.38,105t6.8,18.36a16.34,16.34,0,0,1-8.12,10.81,34,34,0,0,1-15,4,59.88,59.88,0,0,1-17.5-1.72q-17.1-4.25-26.69-14.1a86.29,86.29,0,0,1-15-21.66A3.3,3.3,0,0,0,16,99.52L1.33,110.33a3.32,3.32,0,0,0-1,4.14,73.08,73.08,0,0,0,21.52,26.69q14.34,10.82,34,15.67,18.6,4.6,33.74,2.11t25.13-11.25q10-8.76,13.54-23.08,2.49-10-.5-18.16A41,41,0,0,0,118,91.54a80.82,80.82,0,0,0-16.13-12.27,166,166,0,0,0-19.79-9.89q-16-6.9-24.82-14.31t-6-18.73q2.43-9.84,13.3-12.93A38.66,38.66,0,0,1,72.85,22c.75,0,2,0,2.86,0q1,0,2,.18c1.46.2,2.91.42,4.37.72a52,52,0,0,1,5.38,1.46,66.08,66.08,0,0,1,11,5c6.18,3.5,12.43,7.73,18.76,12.2L121,44.35c3.54,2.51,7.09,5.07,10.68,7.64,11.94,8.57,24.22,17.33,37.24,25.13,8.19,4.94,16.64,9.54,25.32,13.73l-38.93,74.37a1.19,1.19,0,0,0,1,1.74l21.54,1.8a1.19,1.19,0,0,0,1.16-.64c3.37-6.57,19.92-38.74,35.25-68.61,2.8,1.08,5.62,2.13,8.46,3.11a269.2,269.2,0,0,0,28.73,8.18c4.24.94,8.49,1.76,12.76,2.51,8.15,25.16,16.14,49.72,19.15,58.92a1.24,1.24,0,0,0,1.18.85c7.38,0,14.89.12,22.12,0a1.28,1.28,0,0,0,1.19-1.69l-18.19-54.83c6.93.57,13.86.9,20.79,1q14.83.23,29.5-.64c6.31-.37,12.61-.89,18.88-1.52l6.09,54.26a1.53,1.53,0,0,0,1.62,1.37c5.21-.3,13.32-.82,19.82-1.67a1.55,1.55,0,0,0,1.34-1.72l-6.33-55.06c5.58-.84,11.15-1.76,16.69-2.8q17.7-3.28,35.12-7.6l12,64.81,105.25-18.95A2.5,2.5,0,0,0,552.39,145.19Zm-296.3-54.5a222.68,222.68,0,0,1-26.2-8c-2-.73-3.9-1.5-5.84-2.28,9.68-18.9,17.28-33.79,18.12-35.62.57,2.15,7,22.27,14.75,46.14Z"/><path class="cls-1" d="M58.46,249.35l-3.56-8.19H38.11l-3.61,8.19H29l14.77-33.74h5.78l14.66,33.74ZM43.84,228l-3.56,8.1H52.73l-3.66-8.29c-.43-1.06-.85-2.14-1.28-3.25s-.86-2.26-1.29-3.45c-.46,1.22-.9,2.41-1.33,3.57S44.3,227,43.84,228Z"/><path class="cls-1" d="M73.07,249.35V213.68h5.09v35.67Z"/><path class="cls-1" d="M105.37,223.61A10.38,10.38,0,0,1,110.9,225a7.53,7.53,0,0,1,3.16,4,13.61,13.61,0,0,1,2.37-2.41,14.6,14.6,0,0,1,3.56-2.1,11.33,11.33,0,0,1,4.39-.84,10.18,10.18,0,0,1,5.83,1.45,7.65,7.65,0,0,1,3,3.88,16.26,16.26,0,0,1,.86,5.42v15h-5.13V234.84a8.12,8.12,0,0,0-1.31-4.79c-.87-1.24-2.4-1.86-4.57-1.86a9.2,9.2,0,0,0-4.25,1,7.54,7.54,0,0,0-2.94,2.61,6.55,6.55,0,0,0-1.06,3.61v14h-5.13v-14.6a7.38,7.38,0,0,0-1.46-4.73c-1-1.22-2.58-1.83-4.81-1.83a7.85,7.85,0,0,0-4,1,8,8,0,0,0-2.74,2.53,5.73,5.73,0,0,0-1,3.16v14.46H90.56V224h5.13v4.05a13.32,13.32,0,0,1,3.9-3.08A11.75,11.75,0,0,1,105.37,223.61Z"/><path class="cls-1" d="M149.47,218.55a3.43,3.43,0,0,1-2.57-.87,3.11,3.11,0,0,1-.84-2.26,3.11,3.11,0,0,1,3.41-3.14,3.43,3.43,0,0,1,2.57.87,3.12,3.12,0,0,1,.84,2.27,3.11,3.11,0,0,1-3.41,3.13Zm2.57,30.8H147V224H152Z"/><path class="cls-1" d="M182.21,229.68a8.67,8.67,0,0,0-1.8-.65,9,9,0,0,0-2.1-.26,7.88,7.88,0,0,0-3.9,1,8,8,0,0,0-2.86,2.6,6.25,6.25,0,0,0-1.09,3.59v13.4h-5.14V224h5.14v5.07a11.64,11.64,0,0,1,3.83-4,9.14,9.14,0,0,1,5.06-1.59,11.74,11.74,0,0,1,2.39.24,6.07,6.07,0,0,1,1.81.63Z"/><path class="cls-1" d="M217.23,224v25.31h-5.09v-4.14a10.5,10.5,0,0,1-2.42,2.21,14,14,0,0,1-3.53,1.74,13.4,13.4,0,0,1-4.32.67,13.7,13.7,0,0,1-6.84-1.68,12.26,12.26,0,0,1-4.69-4.68,13.52,13.52,0,0,1-1.71-6.85,12.9,12.9,0,0,1,1.78-6.79,12.66,12.66,0,0,1,4.91-4.63,15,15,0,0,1,7.19-1.69,13,13,0,0,1,5.7,1.21,12.38,12.38,0,0,1,3.93,2.79V224Zm-14.18,21.21a10,10,0,0,0,4.82-1.13,8.42,8.42,0,0,0,3.28-3.06,8.31,8.31,0,0,0,1.19-4.44,8.1,8.1,0,0,0-1.19-4.33,8.42,8.42,0,0,0-3.28-3.06,10.74,10.74,0,0,0-9.63,0,8.17,8.17,0,0,0-4.42,7.39,8.38,8.38,0,0,0,1.16,4.44,8.23,8.23,0,0,0,3.26,3.06A9.91,9.91,0,0,0,203.05,245.25Z"/><path class="cls-1" d="M244.34,223.51a11,11,0,0,1,6,1.45,8.36,8.36,0,0,1,3.26,3.83,13.61,13.61,0,0,1,1,5.33v15.23h-5.09v-14.7a6.92,6.92,0,0,0-1.67-4.77,6.1,6.1,0,0,0-5-1.79,8.47,8.47,0,0,0-4.13,1,7.91,7.91,0,0,0-2.83,2.53,5.58,5.58,0,0,0-1,3.18v14.56h-5.09V224h5.09v4.25a13.68,13.68,0,0,1,3.95-3.33A10.77,10.77,0,0,1,244.34,223.51Z"/><path class="cls-1" d="M275.94,249.35h-5.08V228.86h-6.57V224h6.57v-7h5.08v7h7.61v4.82h-7.61Z"/><path class="cls-1" d="M317.48,246h-.05a16.15,16.15,0,0,1-3.09,1.86,19.5,19.5,0,0,1-4.07,1.42,19.2,19.2,0,0,1-4.55.53,18.14,18.14,0,0,1-8-1.66,13,13,0,0,1-5.38-4.58,11.77,11.77,0,0,1-1.93-6.63,12.69,12.69,0,0,1,2-7.25,13.26,13.26,0,0,1,5.41-4.63,16.82,16.82,0,0,1,7.38-1.61A14.4,14.4,0,0,1,312,225a12.62,12.62,0,0,1,4.81,4.32,11.43,11.43,0,0,1,1.8,6.41l0,2.31h-23a7.72,7.72,0,0,0,3.51,5.26,13,13,0,0,0,7.31,1.92,12.28,12.28,0,0,0,5.26-1,26.62,26.62,0,0,0,3.38-1.91Zm-12.2-18a12.91,12.91,0,0,0-6.12,1.38,6.69,6.69,0,0,0-3.41,4.7h17.68v-.53a5,5,0,0,0-1.38-2.89,8.07,8.07,0,0,0-3-2A10.48,10.48,0,0,0,305.28,228Z"/><path class="cls-1" d="M363.26,215.61q5.63,0,8.49,2.17a7.43,7.43,0,0,1,2.87,6.31,7,7,0,0,1-1.24,4.08,7.8,7.8,0,0,1-3.6,2.77,12,12,0,0,1,3.28,1.64,8.1,8.1,0,0,1,2.45,2.74,8.39,8.39,0,0,1,.93,4.1,9.67,9.67,0,0,1-1.11,4.87,8.39,8.39,0,0,1-2.93,3,12.63,12.63,0,0,1-4,1.56,20.75,20.75,0,0,1-4.35.46h-17V215.61Zm-.4,5H352.39v8.87h11.07a7.33,7.33,0,0,0,4-1.2,3.74,3.74,0,0,0,1.73-3.28,3.56,3.56,0,0,0-1.83-3.38A9.24,9.24,0,0,0,362.86,220.62Zm.84,13.88H352.39v9.84H364a9.52,9.52,0,0,0,5.09-1.23,4.16,4.16,0,0,0,2-3.79,3.79,3.79,0,0,0-1.13-2.89,6.48,6.48,0,0,0-2.82-1.49A13.36,13.36,0,0,0,363.7,234.5Z"/><path class="cls-1" d="M403.75,229.68A8.67,8.67,0,0,0,402,229a9,9,0,0,0-2.1-.26,7.91,7.91,0,0,0-3.9,1,8.05,8.05,0,0,0-2.86,2.6A6.25,6.25,0,0,0,392,236v13.4h-5.14V224H392v5.07a11.64,11.64,0,0,1,3.83-4,9.14,9.14,0,0,1,5.06-1.59,11.74,11.74,0,0,1,2.39.24,6.07,6.07,0,0,1,1.81.63Z"/><path class="cls-1" d="M440,236.67a12.23,12.23,0,0,1-1.92,6.82,13.37,13.37,0,0,1-5.26,4.66,18,18,0,0,1-15.19,0,13.23,13.23,0,0,1-5.28-4.66,13,13,0,0,1,0-13.64,13.28,13.28,0,0,1,5.28-4.65,17.91,17.91,0,0,1,15.19,0,13.42,13.42,0,0,1,5.26,4.65A12.28,12.28,0,0,1,440,236.67Zm-5.18,0a7.84,7.84,0,0,0-1.21-4.5,8.53,8.53,0,0,0-3.46-3,11.63,11.63,0,0,0-9.83,0,8.71,8.71,0,0,0-3.48,3,8.77,8.77,0,0,0,0,9,8.92,8.92,0,0,0,3.48,3.06,11.44,11.44,0,0,0,9.83,0,8.72,8.72,0,0,0,3.46-3.06A7.77,7.77,0,0,0,434.82,236.67Z"/><path class="cls-1" d="M484.8,224l-9.44,25.31h-3.5l-7.21-15.18-7,15.18h-3.45L445.09,224l5.33,0,5.88,17.88L462.92,228h3.6L473.24,242,479.66,224Z"/><path class="cls-1" d="M508.15,223.51a11,11,0,0,1,6,1.45,8.3,8.3,0,0,1,3.26,3.83,13.44,13.44,0,0,1,1,5.33v15.23h-5.09v-14.7a6.88,6.88,0,0,0-1.68-4.77,6.08,6.08,0,0,0-5-1.79,8.43,8.43,0,0,0-4.12,1,7.94,7.94,0,0,0-2.84,2.53,5.65,5.65,0,0,0-1,3.18v14.56h-5.08V224h5.08v4.25a13.82,13.82,0,0,1,3.95-3.33A10.79,10.79,0,0,1,508.15,223.51Z"/></g></g></g></svg>